<svg xmlns="http://www.w3.org/2000/svg" viewBox="0 0 800 362" width="800" height="362" font-family="'Unil Sans', Arial, sans-serif">
<rect width="800" height="362" fill="#fdfdfc"/>
<defs><marker id="ak" viewBox="0 0 10 10" refX="9" refY="5" markerWidth="8" markerHeight="8" orient="auto"><path d="M0,0 L10,5 L0,10 z" fill="#395b8c"/></marker></defs>
<g transform="translate(0,0)">
<line x1="60" y1="300" x2="370" y2="300" stroke="#4b5563"/>
<line x1="60" y1="300" x2="60" y2="30" stroke="#4b5563"/>
<text x="215.0" y="22.0" font-size="16" fill="#1e2b3e" text-anchor="middle" font-weight="700" >what we see</text>
<text x="215.0" y="326.0" font-size="14" fill="#4b5563" text-anchor="middle" font-weight="400" >visits per month</text>
<text x="30" y="165" font-size="14" fill="#4b5563" text-anchor="middle" transform="rotate(-90 30 165)">CHF spent per visit</text>
<circle cx="98.2" cy="76.9" r="4.2" fill="#9aa3ad" fill-opacity="0.85"/>
<circle cx="122.8" cy="112.0" r="4.2" fill="#9aa3ad" fill-opacity="0.85"/>
<circle cx="91.4" cy="112.3" r="4.2" fill="#9aa3ad" fill-opacity="0.85"/>
<circle cx="109.3" cy="103.4" r="4.2" fill="#9aa3ad" fill-opacity="0.85"/>
<circle cx="112.9" cy="137.0" r="4.2" fill="#9aa3ad" fill-opacity="0.85"/>
<circle cx="129.8" cy="104.2" r="4.2" fill="#9aa3ad" fill-opacity="0.85"/>
<circle cx="111.5" cy="105.0" r="4.2" fill="#9aa3ad" fill-opacity="0.85"/>
<circle cx="89.7" cy="93.7" r="4.2" fill="#9aa3ad" fill-opacity="0.85"/>
<circle cx="114.5" cy="106.2" r="4.2" fill="#9aa3ad" fill-opacity="0.85"/>
<circle cx="94.3" cy="89.6" r="4.2" fill="#9aa3ad" fill-opacity="0.85"/>
<circle cx="79.5" cy="130.7" r="4.2" fill="#9aa3ad" fill-opacity="0.85"/>
<circle cx="105.6" cy="115.0" r="4.2" fill="#9aa3ad" fill-opacity="0.85"/>
<circle cx="57.9" cy="117.6" r="4.2" fill="#9aa3ad" fill-opacity="0.85"/>
<circle cx="87.9" cy="124.7" r="4.2" fill="#9aa3ad" fill-opacity="0.85"/>
<circle cx="66.7" cy="101.7" r="4.2" fill="#9aa3ad" fill-opacity="0.85"/>
<circle cx="116.0" cy="106.8" r="4.2" fill="#9aa3ad" fill-opacity="0.85"/>
<circle cx="82.2" cy="95.2" r="4.2" fill="#9aa3ad" fill-opacity="0.85"/>
<circle cx="112.3" cy="108.0" r="4.2" fill="#9aa3ad" fill-opacity="0.85"/>
<circle cx="108.7" cy="82.9" r="4.2" fill="#9aa3ad" fill-opacity="0.85"/>
<circle cx="93.2" cy="117.6" r="4.2" fill="#9aa3ad" fill-opacity="0.85"/>
<circle cx="104.7" cy="97.8" r="4.2" fill="#9aa3ad" fill-opacity="0.85"/>
<circle cx="120.2" cy="126.4" r="4.2" fill="#9aa3ad" fill-opacity="0.85"/>
<circle cx="83.9" cy="118.1" r="4.2" fill="#9aa3ad" fill-opacity="0.85"/>
<circle cx="61.7" cy="100.0" r="4.2" fill="#9aa3ad" fill-opacity="0.85"/>
<circle cx="108.4" cy="116.2" r="4.2" fill="#9aa3ad" fill-opacity="0.85"/>
<circle cx="126.1" cy="87.0" r="4.2" fill="#9aa3ad" fill-opacity="0.85"/>
<circle cx="110.4" cy="94.9" r="4.2" fill="#9aa3ad" fill-opacity="0.85"/>
<circle cx="117.2" cy="127.3" r="4.2" fill="#9aa3ad" fill-opacity="0.85"/>
<circle cx="110.2" cy="91.1" r="4.2" fill="#9aa3ad" fill-opacity="0.85"/>
<circle cx="61.0" cy="95.9" r="4.2" fill="#9aa3ad" fill-opacity="0.85"/>
<circle cx="92.3" cy="87.8" r="4.2" fill="#9aa3ad" fill-opacity="0.85"/>
<circle cx="88.4" cy="102.7" r="4.2" fill="#9aa3ad" fill-opacity="0.85"/>
<circle cx="104.6" cy="118.8" r="4.2" fill="#9aa3ad" fill-opacity="0.85"/>
<circle cx="109.8" cy="104.4" r="4.2" fill="#9aa3ad" fill-opacity="0.85"/>
<circle cx="107.7" cy="112.2" r="4.2" fill="#9aa3ad" fill-opacity="0.85"/>
<circle cx="119.9" cy="91.1" r="4.2" fill="#9aa3ad" fill-opacity="0.85"/>
<circle cx="93.8" cy="90.6" r="4.2" fill="#9aa3ad" fill-opacity="0.85"/>
<circle cx="123.5" cy="68.9" r="4.2" fill="#9aa3ad" fill-opacity="0.85"/>
<circle cx="65.0" cy="85.9" r="4.2" fill="#9aa3ad" fill-opacity="0.85"/>
<circle cx="107.1" cy="104.2" r="4.2" fill="#9aa3ad" fill-opacity="0.85"/>
<circle cx="76.7" cy="78.9" r="4.2" fill="#9aa3ad" fill-opacity="0.85"/>
<circle cx="71.5" cy="91.8" r="4.2" fill="#9aa3ad" fill-opacity="0.85"/>
<circle cx="124.4" cy="132.3" r="4.2" fill="#9aa3ad" fill-opacity="0.85"/>
<circle cx="91.3" cy="126.9" r="4.2" fill="#9aa3ad" fill-opacity="0.85"/>
<circle cx="102.5" cy="74.1" r="4.2" fill="#9aa3ad" fill-opacity="0.85"/>
<circle cx="270.5" cy="287.5" r="4.2" fill="#9aa3ad" fill-opacity="0.85"/>
<circle cx="216.9" cy="241.1" r="4.2" fill="#9aa3ad" fill-opacity="0.85"/>
<circle cx="261.3" cy="246.4" r="4.2" fill="#9aa3ad" fill-opacity="0.85"/>
<circle cx="213.4" cy="248.7" r="4.2" fill="#9aa3ad" fill-opacity="0.85"/>
<circle cx="228.4" cy="258.1" r="4.2" fill="#9aa3ad" fill-opacity="0.85"/>
<circle cx="213.6" cy="247.0" r="4.2" fill="#9aa3ad" fill-opacity="0.85"/>
<circle cx="235.1" cy="256.0" r="4.2" fill="#9aa3ad" fill-opacity="0.85"/>
<circle cx="224.2" cy="278.3" r="4.2" fill="#9aa3ad" fill-opacity="0.85"/>
<circle cx="218.7" cy="231.7" r="4.2" fill="#9aa3ad" fill-opacity="0.85"/>
<circle cx="224.8" cy="281.2" r="4.2" fill="#9aa3ad" fill-opacity="0.85"/>
<circle cx="256.3" cy="244.3" r="4.2" fill="#9aa3ad" fill-opacity="0.85"/>
<circle cx="272.2" cy="253.1" r="4.2" fill="#9aa3ad" fill-opacity="0.85"/>
<circle cx="219.2" cy="281.3" r="4.2" fill="#9aa3ad" fill-opacity="0.85"/>
<circle cx="256.1" cy="206.1" r="4.2" fill="#9aa3ad" fill-opacity="0.85"/>
<circle cx="211.8" cy="266.4" r="4.2" fill="#9aa3ad" fill-opacity="0.85"/>
<circle cx="241.0" cy="269.8" r="4.2" fill="#9aa3ad" fill-opacity="0.85"/>
<circle cx="223.2" cy="260.8" r="4.2" fill="#9aa3ad" fill-opacity="0.85"/>
<circle cx="232.7" cy="233.7" r="4.2" fill="#9aa3ad" fill-opacity="0.85"/>
<circle cx="229.2" cy="237.0" r="4.2" fill="#9aa3ad" fill-opacity="0.85"/>
<circle cx="220.1" cy="248.1" r="4.2" fill="#9aa3ad" fill-opacity="0.85"/>
<circle cx="184.6" cy="281.4" r="4.2" fill="#9aa3ad" fill-opacity="0.85"/>
<circle cx="245.2" cy="265.3" r="4.2" fill="#9aa3ad" fill-opacity="0.85"/>
<circle cx="240.7" cy="244.1" r="4.2" fill="#9aa3ad" fill-opacity="0.85"/>
<circle cx="256.0" cy="239.0" r="4.2" fill="#9aa3ad" fill-opacity="0.85"/>
<circle cx="249.7" cy="256.3" r="4.2" fill="#9aa3ad" fill-opacity="0.85"/>
<circle cx="214.3" cy="267.9" r="4.2" fill="#9aa3ad" fill-opacity="0.85"/>
<circle cx="218.7" cy="275.4" r="4.2" fill="#9aa3ad" fill-opacity="0.85"/>
<circle cx="217.5" cy="256.0" r="4.2" fill="#9aa3ad" fill-opacity="0.85"/>
<circle cx="233.9" cy="260.6" r="4.2" fill="#9aa3ad" fill-opacity="0.85"/>
<circle cx="189.1" cy="255.6" r="4.2" fill="#9aa3ad" fill-opacity="0.85"/>
<circle cx="233.4" cy="233.9" r="4.2" fill="#9aa3ad" fill-opacity="0.85"/>
<circle cx="240.7" cy="266.3" r="4.2" fill="#9aa3ad" fill-opacity="0.85"/>
<circle cx="213.8" cy="216.6" r="4.2" fill="#9aa3ad" fill-opacity="0.85"/>
<circle cx="244.4" cy="220.0" r="4.2" fill="#9aa3ad" fill-opacity="0.85"/>
<circle cx="272.7" cy="269.6" r="4.2" fill="#9aa3ad" fill-opacity="0.85"/>
<circle cx="236.7" cy="245.7" r="4.2" fill="#9aa3ad" fill-opacity="0.85"/>
<circle cx="240.3" cy="244.1" r="4.2" fill="#9aa3ad" fill-opacity="0.85"/>
<circle cx="232.9" cy="251.0" r="4.2" fill="#9aa3ad" fill-opacity="0.85"/>
<circle cx="197.8" cy="257.3" r="4.2" fill="#9aa3ad" fill-opacity="0.85"/>
<circle cx="213.3" cy="251.9" r="4.2" fill="#9aa3ad" fill-opacity="0.85"/>
<circle cx="219.1" cy="242.7" r="4.2" fill="#9aa3ad" fill-opacity="0.85"/>
<circle cx="245.6" cy="248.5" r="4.2" fill="#9aa3ad" fill-opacity="0.85"/>
<circle cx="235.3" cy="252.5" r="4.2" fill="#9aa3ad" fill-opacity="0.85"/>
<circle cx="219.5" cy="257.3" r="4.2" fill="#9aa3ad" fill-opacity="0.85"/>
<circle cx="218.5" cy="247.0" r="4.2" fill="#9aa3ad" fill-opacity="0.85"/>
<circle cx="135.3" cy="205.9" r="4.2" fill="#9aa3ad" fill-opacity="0.85"/>
<circle cx="107.6" cy="200.2" r="4.2" fill="#9aa3ad" fill-opacity="0.85"/>
<circle cx="119.3" cy="230.5" r="4.2" fill="#9aa3ad" fill-opacity="0.85"/>
<circle cx="130.9" cy="227.3" r="4.2" fill="#9aa3ad" fill-opacity="0.85"/>
<circle cx="141.0" cy="227.5" r="4.2" fill="#9aa3ad" fill-opacity="0.85"/>
<circle cx="112.9" cy="232.6" r="4.2" fill="#9aa3ad" fill-opacity="0.85"/>
<circle cx="162.1" cy="216.0" r="4.2" fill="#9aa3ad" fill-opacity="0.85"/>
<circle cx="110.9" cy="216.6" r="4.2" fill="#9aa3ad" fill-opacity="0.85"/>
<circle cx="102.9" cy="183.3" r="4.2" fill="#9aa3ad" fill-opacity="0.85"/>
<circle cx="103.6" cy="207.8" r="4.2" fill="#9aa3ad" fill-opacity="0.85"/>
<circle cx="146.2" cy="243.9" r="4.2" fill="#9aa3ad" fill-opacity="0.85"/>
<circle cx="141.2" cy="198.1" r="4.2" fill="#9aa3ad" fill-opacity="0.85"/>
<circle cx="144.6" cy="211.9" r="4.2" fill="#9aa3ad" fill-opacity="0.85"/>
<circle cx="154.6" cy="213.8" r="4.2" fill="#9aa3ad" fill-opacity="0.85"/>
<circle cx="141.9" cy="219.2" r="4.2" fill="#9aa3ad" fill-opacity="0.85"/>
<circle cx="148.0" cy="234.4" r="4.2" fill="#9aa3ad" fill-opacity="0.85"/>
<circle cx="151.3" cy="226.3" r="4.2" fill="#9aa3ad" fill-opacity="0.85"/>
<circle cx="112.5" cy="210.0" r="4.2" fill="#9aa3ad" fill-opacity="0.85"/>
<circle cx="169.9" cy="198.8" r="4.2" fill="#9aa3ad" fill-opacity="0.85"/>
<circle cx="124.4" cy="203.7" r="4.2" fill="#9aa3ad" fill-opacity="0.85"/>
<circle cx="125.6" cy="219.1" r="4.2" fill="#9aa3ad" fill-opacity="0.85"/>
<circle cx="136.8" cy="260.2" r="4.2" fill="#9aa3ad" fill-opacity="0.85"/>
<circle cx="139.0" cy="236.1" r="4.2" fill="#9aa3ad" fill-opacity="0.85"/>
<circle cx="120.6" cy="244.4" r="4.2" fill="#9aa3ad" fill-opacity="0.85"/>
<circle cx="103.7" cy="234.5" r="4.2" fill="#9aa3ad" fill-opacity="0.85"/>
<circle cx="152.0" cy="185.6" r="4.2" fill="#9aa3ad" fill-opacity="0.85"/>
<circle cx="134.5" cy="196.4" r="4.2" fill="#9aa3ad" fill-opacity="0.85"/>
<circle cx="129.6" cy="252.6" r="4.2" fill="#9aa3ad" fill-opacity="0.85"/>
<circle cx="138.1" cy="208.5" r="4.2" fill="#9aa3ad" fill-opacity="0.85"/>
<circle cx="126.2" cy="211.1" r="4.2" fill="#9aa3ad" fill-opacity="0.85"/>
<circle cx="146.8" cy="233.0" r="4.2" fill="#9aa3ad" fill-opacity="0.85"/>
<circle cx="104.5" cy="220.9" r="4.2" fill="#9aa3ad" fill-opacity="0.85"/>
<circle cx="130.6" cy="223.4" r="4.2" fill="#9aa3ad" fill-opacity="0.85"/>
<circle cx="155.4" cy="184.5" r="4.2" fill="#9aa3ad" fill-opacity="0.85"/>
<circle cx="126.4" cy="203.7" r="4.2" fill="#9aa3ad" fill-opacity="0.85"/>
<circle cx="154.4" cy="203.4" r="4.2" fill="#9aa3ad" fill-opacity="0.85"/>
<circle cx="156.6" cy="224.1" r="4.2" fill="#9aa3ad" fill-opacity="0.85"/>
<circle cx="150.3" cy="178.9" r="4.2" fill="#9aa3ad" fill-opacity="0.85"/>
<circle cx="151.6" cy="228.4" r="4.2" fill="#9aa3ad" fill-opacity="0.85"/>
<circle cx="147.5" cy="193.2" r="4.2" fill="#9aa3ad" fill-opacity="0.85"/>
<circle cx="142.6" cy="227.3" r="4.2" fill="#9aa3ad" fill-opacity="0.85"/>
<circle cx="166.8" cy="240.2" r="4.2" fill="#9aa3ad" fill-opacity="0.85"/>
<circle cx="145.4" cy="217.1" r="4.2" fill="#9aa3ad" fill-opacity="0.85"/>
<circle cx="110.4" cy="194.0" r="4.2" fill="#9aa3ad" fill-opacity="0.85"/>
<circle cx="142.2" cy="238.6" r="4.2" fill="#9aa3ad" fill-opacity="0.85"/>
<circle cx="297.4" cy="162.5" r="4.2" fill="#9aa3ad" fill-opacity="0.85"/>
<circle cx="245.8" cy="167.3" r="4.2" fill="#9aa3ad" fill-opacity="0.85"/>
<circle cx="290.4" cy="142.5" r="4.2" fill="#9aa3ad" fill-opacity="0.85"/>
<circle cx="288.4" cy="153.6" r="4.2" fill="#9aa3ad" fill-opacity="0.85"/>
<circle cx="294.7" cy="158.3" r="4.2" fill="#9aa3ad" fill-opacity="0.85"/>
<circle cx="309.3" cy="151.6" r="4.2" fill="#9aa3ad" fill-opacity="0.85"/>
<circle cx="291.1" cy="144.3" r="4.2" fill="#9aa3ad" fill-opacity="0.85"/>
<circle cx="263.2" cy="167.7" r="4.2" fill="#9aa3ad" fill-opacity="0.85"/>
<circle cx="316.5" cy="148.1" r="4.2" fill="#9aa3ad" fill-opacity="0.85"/>
<circle cx="279.2" cy="148.0" r="4.2" fill="#9aa3ad" fill-opacity="0.85"/>
<circle cx="275.1" cy="149.2" r="4.2" fill="#9aa3ad" fill-opacity="0.85"/>
<circle cx="271.3" cy="149.2" r="4.2" fill="#9aa3ad" fill-opacity="0.85"/>
<circle cx="252.5" cy="129.5" r="4.2" fill="#9aa3ad" fill-opacity="0.85"/>
<circle cx="274.4" cy="184.0" r="4.2" fill="#9aa3ad" fill-opacity="0.85"/>
<circle cx="280.4" cy="161.3" r="4.2" fill="#9aa3ad" fill-opacity="0.85"/>
<circle cx="288.1" cy="175.8" r="4.2" fill="#9aa3ad" fill-opacity="0.85"/>
<circle cx="293.2" cy="86.6" r="4.2" fill="#9aa3ad" fill-opacity="0.85"/>
<circle cx="258.6" cy="148.1" r="4.2" fill="#9aa3ad" fill-opacity="0.85"/>
<circle cx="278.6" cy="150.8" r="4.2" fill="#9aa3ad" fill-opacity="0.85"/>
<circle cx="247.6" cy="175.9" r="4.2" fill="#9aa3ad" fill-opacity="0.85"/>
<circle cx="294.5" cy="155.1" r="4.2" fill="#9aa3ad" fill-opacity="0.85"/>
<circle cx="318.7" cy="167.6" r="4.2" fill="#9aa3ad" fill-opacity="0.85"/>
<circle cx="288.6" cy="99.9" r="4.2" fill="#9aa3ad" fill-opacity="0.85"/>
<circle cx="269.2" cy="171.3" r="4.2" fill="#9aa3ad" fill-opacity="0.85"/>
<circle cx="284.3" cy="155.2" r="4.2" fill="#9aa3ad" fill-opacity="0.85"/>
<circle cx="302.4" cy="152.0" r="4.2" fill="#9aa3ad" fill-opacity="0.85"/>
<circle cx="269.4" cy="150.4" r="4.2" fill="#9aa3ad" fill-opacity="0.85"/>
<circle cx="339.4" cy="130.6" r="4.2" fill="#9aa3ad" fill-opacity="0.85"/>
<circle cx="227.6" cy="157.1" r="4.2" fill="#9aa3ad" fill-opacity="0.85"/>
<circle cx="267.0" cy="142.8" r="4.2" fill="#9aa3ad" fill-opacity="0.85"/>
<circle cx="281.4" cy="118.2" r="4.2" fill="#9aa3ad" fill-opacity="0.85"/>
<circle cx="304.2" cy="137.7" r="4.2" fill="#9aa3ad" fill-opacity="0.85"/>
<circle cx="288.8" cy="155.2" r="4.2" fill="#9aa3ad" fill-opacity="0.85"/>
<circle cx="292.0" cy="130.2" r="4.2" fill="#9aa3ad" fill-opacity="0.85"/>
<circle cx="296.0" cy="161.0" r="4.2" fill="#9aa3ad" fill-opacity="0.85"/>
<circle cx="311.3" cy="150.8" r="4.2" fill="#9aa3ad" fill-opacity="0.85"/>
<circle cx="283.4" cy="169.2" r="4.2" fill="#9aa3ad" fill-opacity="0.85"/>
<circle cx="273.3" cy="166.3" r="4.2" fill="#9aa3ad" fill-opacity="0.85"/>
<circle cx="227.4" cy="135.4" r="4.2" fill="#9aa3ad" fill-opacity="0.85"/>
<circle cx="296.7" cy="158.4" r="4.2" fill="#9aa3ad" fill-opacity="0.85"/>
<circle cx="306.6" cy="146.2" r="4.2" fill="#9aa3ad" fill-opacity="0.85"/>
<circle cx="292.7" cy="200.7" r="4.2" fill="#9aa3ad" fill-opacity="0.85"/>
<circle cx="280.2" cy="144.4" r="4.2" fill="#9aa3ad" fill-opacity="0.85"/>
<circle cx="318.2" cy="119.9" r="4.2" fill="#9aa3ad" fill-opacity="0.85"/>
<circle cx="314.4" cy="176.1" r="4.2" fill="#9aa3ad" fill-opacity="0.85"/>
</g>
<g transform="translate(400,0)">
<line x1="60" y1="300" x2="370" y2="300" stroke="#4b5563"/>
<line x1="60" y1="300" x2="60" y2="30" stroke="#4b5563"/>
<text x="215.0" y="22.0" font-size="16" fill="#1e2b3e" text-anchor="middle" font-weight="700" >what a clustering algorithm finds</text>
<text x="215.0" y="326.0" font-size="14" fill="#4b5563" text-anchor="middle" font-weight="400" >visits per month</text>

<circle cx="98.2" cy="76.9" r="4.2" fill="#fab52a" fill-opacity="0.85"/>
<circle cx="122.8" cy="112.0" r="4.2" fill="#fab52a" fill-opacity="0.85"/>
<circle cx="91.4" cy="112.3" r="4.2" fill="#fab52a" fill-opacity="0.85"/>
<circle cx="109.3" cy="103.4" r="4.2" fill="#fab52a" fill-opacity="0.85"/>
<circle cx="112.9" cy="137.0" r="4.2" fill="#fab52a" fill-opacity="0.85"/>
<circle cx="129.8" cy="104.2" r="4.2" fill="#fab52a" fill-opacity="0.85"/>
<circle cx="111.5" cy="105.0" r="4.2" fill="#fab52a" fill-opacity="0.85"/>
<circle cx="89.7" cy="93.7" r="4.2" fill="#fab52a" fill-opacity="0.85"/>
<circle cx="114.5" cy="106.2" r="4.2" fill="#fab52a" fill-opacity="0.85"/>
<circle cx="94.3" cy="89.6" r="4.2" fill="#fab52a" fill-opacity="0.85"/>
<circle cx="79.5" cy="130.7" r="4.2" fill="#fab52a" fill-opacity="0.85"/>
<circle cx="105.6" cy="115.0" r="4.2" fill="#fab52a" fill-opacity="0.85"/>
<circle cx="57.9" cy="117.6" r="4.2" fill="#fab52a" fill-opacity="0.85"/>
<circle cx="87.9" cy="124.7" r="4.2" fill="#fab52a" fill-opacity="0.85"/>
<circle cx="66.7" cy="101.7" r="4.2" fill="#fab52a" fill-opacity="0.85"/>
<circle cx="116.0" cy="106.8" r="4.2" fill="#fab52a" fill-opacity="0.85"/>
<circle cx="82.2" cy="95.2" r="4.2" fill="#fab52a" fill-opacity="0.85"/>
<circle cx="112.3" cy="108.0" r="4.2" fill="#fab52a" fill-opacity="0.85"/>
<circle cx="108.7" cy="82.9" r="4.2" fill="#fab52a" fill-opacity="0.85"/>
<circle cx="93.2" cy="117.6" r="4.2" fill="#fab52a" fill-opacity="0.85"/>
<circle cx="104.7" cy="97.8" r="4.2" fill="#fab52a" fill-opacity="0.85"/>
<circle cx="120.2" cy="126.4" r="4.2" fill="#fab52a" fill-opacity="0.85"/>
<circle cx="83.9" cy="118.1" r="4.2" fill="#fab52a" fill-opacity="0.85"/>
<circle cx="61.7" cy="100.0" r="4.2" fill="#fab52a" fill-opacity="0.85"/>
<circle cx="108.4" cy="116.2" r="4.2" fill="#fab52a" fill-opacity="0.85"/>
<circle cx="126.1" cy="87.0" r="4.2" fill="#fab52a" fill-opacity="0.85"/>
<circle cx="110.4" cy="94.9" r="4.2" fill="#fab52a" fill-opacity="0.85"/>
<circle cx="117.2" cy="127.3" r="4.2" fill="#fab52a" fill-opacity="0.85"/>
<circle cx="110.2" cy="91.1" r="4.2" fill="#fab52a" fill-opacity="0.85"/>
<circle cx="61.0" cy="95.9" r="4.2" fill="#fab52a" fill-opacity="0.85"/>
<circle cx="92.3" cy="87.8" r="4.2" fill="#fab52a" fill-opacity="0.85"/>
<circle cx="88.4" cy="102.7" r="4.2" fill="#fab52a" fill-opacity="0.85"/>
<circle cx="104.6" cy="118.8" r="4.2" fill="#fab52a" fill-opacity="0.85"/>
<circle cx="109.8" cy="104.4" r="4.2" fill="#fab52a" fill-opacity="0.85"/>
<circle cx="107.7" cy="112.2" r="4.2" fill="#fab52a" fill-opacity="0.85"/>
<circle cx="119.9" cy="91.1" r="4.2" fill="#fab52a" fill-opacity="0.85"/>
<circle cx="93.8" cy="90.6" r="4.2" fill="#fab52a" fill-opacity="0.85"/>
<circle cx="123.5" cy="68.9" r="4.2" fill="#fab52a" fill-opacity="0.85"/>
<circle cx="65.0" cy="85.9" r="4.2" fill="#fab52a" fill-opacity="0.85"/>
<circle cx="107.1" cy="104.2" r="4.2" fill="#fab52a" fill-opacity="0.85"/>
<circle cx="76.7" cy="78.9" r="4.2" fill="#fab52a" fill-opacity="0.85"/>
<circle cx="71.5" cy="91.8" r="4.2" fill="#fab52a" fill-opacity="0.85"/>
<circle cx="124.4" cy="132.3" r="4.2" fill="#fab52a" fill-opacity="0.85"/>
<circle cx="91.3" cy="126.9" r="4.2" fill="#fab52a" fill-opacity="0.85"/>
<circle cx="102.5" cy="74.1" r="4.2" fill="#fab52a" fill-opacity="0.85"/>
<circle cx="270.5" cy="287.5" r="4.2" fill="#3578b4" fill-opacity="0.85"/>
<circle cx="216.9" cy="241.1" r="4.2" fill="#3578b4" fill-opacity="0.85"/>
<circle cx="261.3" cy="246.4" r="4.2" fill="#3578b4" fill-opacity="0.85"/>
<circle cx="213.4" cy="248.7" r="4.2" fill="#3578b4" fill-opacity="0.85"/>
<circle cx="228.4" cy="258.1" r="4.2" fill="#3578b4" fill-opacity="0.85"/>
<circle cx="213.6" cy="247.0" r="4.2" fill="#3578b4" fill-opacity="0.85"/>
<circle cx="235.1" cy="256.0" r="4.2" fill="#3578b4" fill-opacity="0.85"/>
<circle cx="224.2" cy="278.3" r="4.2" fill="#3578b4" fill-opacity="0.85"/>
<circle cx="218.7" cy="231.7" r="4.2" fill="#3578b4" fill-opacity="0.85"/>
<circle cx="224.8" cy="281.2" r="4.2" fill="#3578b4" fill-opacity="0.85"/>
<circle cx="256.3" cy="244.3" r="4.2" fill="#3578b4" fill-opacity="0.85"/>
<circle cx="272.2" cy="253.1" r="4.2" fill="#3578b4" fill-opacity="0.85"/>
<circle cx="219.2" cy="281.3" r="4.2" fill="#3578b4" fill-opacity="0.85"/>
<circle cx="256.1" cy="206.1" r="4.2" fill="#3578b4" fill-opacity="0.85"/>
<circle cx="211.8" cy="266.4" r="4.2" fill="#3578b4" fill-opacity="0.85"/>
<circle cx="241.0" cy="269.8" r="4.2" fill="#3578b4" fill-opacity="0.85"/>
<circle cx="223.2" cy="260.8" r="4.2" fill="#3578b4" fill-opacity="0.85"/>
<circle cx="232.7" cy="233.7" r="4.2" fill="#3578b4" fill-opacity="0.85"/>
<circle cx="229.2" cy="237.0" r="4.2" fill="#3578b4" fill-opacity="0.85"/>
<circle cx="220.1" cy="248.1" r="4.2" fill="#3578b4" fill-opacity="0.85"/>
<circle cx="184.6" cy="281.4" r="4.2" fill="#3578b4" fill-opacity="0.85"/>
<circle cx="245.2" cy="265.3" r="4.2" fill="#3578b4" fill-opacity="0.85"/>
<circle cx="240.7" cy="244.1" r="4.2" fill="#3578b4" fill-opacity="0.85"/>
<circle cx="256.0" cy="239.0" r="4.2" fill="#3578b4" fill-opacity="0.85"/>
<circle cx="249.7" cy="256.3" r="4.2" fill="#3578b4" fill-opacity="0.85"/>
<circle cx="214.3" cy="267.9" r="4.2" fill="#3578b4" fill-opacity="0.85"/>
<circle cx="218.7" cy="275.4" r="4.2" fill="#3578b4" fill-opacity="0.85"/>
<circle cx="217.5" cy="256.0" r="4.2" fill="#3578b4" fill-opacity="0.85"/>
<circle cx="233.9" cy="260.6" r="4.2" fill="#3578b4" fill-opacity="0.85"/>
<circle cx="189.1" cy="255.6" r="4.2" fill="#3578b4" fill-opacity="0.85"/>
<circle cx="233.4" cy="233.9" r="4.2" fill="#3578b4" fill-opacity="0.85"/>
<circle cx="240.7" cy="266.3" r="4.2" fill="#3578b4" fill-opacity="0.85"/>
<circle cx="213.8" cy="216.6" r="4.2" fill="#3578b4" fill-opacity="0.85"/>
<circle cx="244.4" cy="220.0" r="4.2" fill="#3578b4" fill-opacity="0.85"/>
<circle cx="272.7" cy="269.6" r="4.2" fill="#3578b4" fill-opacity="0.85"/>
<circle cx="236.7" cy="245.7" r="4.2" fill="#3578b4" fill-opacity="0.85"/>
<circle cx="240.3" cy="244.1" r="4.2" fill="#3578b4" fill-opacity="0.85"/>
<circle cx="232.9" cy="251.0" r="4.2" fill="#3578b4" fill-opacity="0.85"/>
<circle cx="197.8" cy="257.3" r="4.2" fill="#3578b4" fill-opacity="0.85"/>
<circle cx="213.3" cy="251.9" r="4.2" fill="#3578b4" fill-opacity="0.85"/>
<circle cx="219.1" cy="242.7" r="4.2" fill="#3578b4" fill-opacity="0.85"/>
<circle cx="245.6" cy="248.5" r="4.2" fill="#3578b4" fill-opacity="0.85"/>
<circle cx="235.3" cy="252.5" r="4.2" fill="#3578b4" fill-opacity="0.85"/>
<circle cx="219.5" cy="257.3" r="4.2" fill="#3578b4" fill-opacity="0.85"/>
<circle cx="218.5" cy="247.0" r="4.2" fill="#3578b4" fill-opacity="0.85"/>
<circle cx="135.3" cy="205.9" r="4.2" fill="#c0392b" fill-opacity="0.85"/>
<circle cx="107.6" cy="200.2" r="4.2" fill="#c0392b" fill-opacity="0.85"/>
<circle cx="119.3" cy="230.5" r="4.2" fill="#c0392b" fill-opacity="0.85"/>
<circle cx="130.9" cy="227.3" r="4.2" fill="#c0392b" fill-opacity="0.85"/>
<circle cx="141.0" cy="227.5" r="4.2" fill="#c0392b" fill-opacity="0.85"/>
<circle cx="112.9" cy="232.6" r="4.2" fill="#c0392b" fill-opacity="0.85"/>
<circle cx="162.1" cy="216.0" r="4.2" fill="#c0392b" fill-opacity="0.85"/>
<circle cx="110.9" cy="216.6" r="4.2" fill="#c0392b" fill-opacity="0.85"/>
<circle cx="102.9" cy="183.3" r="4.2" fill="#c0392b" fill-opacity="0.85"/>
<circle cx="103.6" cy="207.8" r="4.2" fill="#c0392b" fill-opacity="0.85"/>
<circle cx="146.2" cy="243.9" r="4.2" fill="#c0392b" fill-opacity="0.85"/>
<circle cx="141.2" cy="198.1" r="4.2" fill="#c0392b" fill-opacity="0.85"/>
<circle cx="144.6" cy="211.9" r="4.2" fill="#c0392b" fill-opacity="0.85"/>
<circle cx="154.6" cy="213.8" r="4.2" fill="#c0392b" fill-opacity="0.85"/>
<circle cx="141.9" cy="219.2" r="4.2" fill="#c0392b" fill-opacity="0.85"/>
<circle cx="148.0" cy="234.4" r="4.2" fill="#c0392b" fill-opacity="0.85"/>
<circle cx="151.3" cy="226.3" r="4.2" fill="#c0392b" fill-opacity="0.85"/>
<circle cx="112.5" cy="210.0" r="4.2" fill="#c0392b" fill-opacity="0.85"/>
<circle cx="169.9" cy="198.8" r="4.2" fill="#c0392b" fill-opacity="0.85"/>
<circle cx="124.4" cy="203.7" r="4.2" fill="#c0392b" fill-opacity="0.85"/>
<circle cx="125.6" cy="219.1" r="4.2" fill="#c0392b" fill-opacity="0.85"/>
<circle cx="136.8" cy="260.2" r="4.2" fill="#c0392b" fill-opacity="0.85"/>
<circle cx="139.0" cy="236.1" r="4.2" fill="#c0392b" fill-opacity="0.85"/>
<circle cx="120.6" cy="244.4" r="4.2" fill="#c0392b" fill-opacity="0.85"/>
<circle cx="103.7" cy="234.5" r="4.2" fill="#c0392b" fill-opacity="0.85"/>
<circle cx="152.0" cy="185.6" r="4.2" fill="#c0392b" fill-opacity="0.85"/>
<circle cx="134.5" cy="196.4" r="4.2" fill="#c0392b" fill-opacity="0.85"/>
<circle cx="129.6" cy="252.6" r="4.2" fill="#c0392b" fill-opacity="0.85"/>
<circle cx="138.1" cy="208.5" r="4.2" fill="#c0392b" fill-opacity="0.85"/>
<circle cx="126.2" cy="211.1" r="4.2" fill="#c0392b" fill-opacity="0.85"/>
<circle cx="146.8" cy="233.0" r="4.2" fill="#c0392b" fill-opacity="0.85"/>
<circle cx="104.5" cy="220.9" r="4.2" fill="#c0392b" fill-opacity="0.85"/>
<circle cx="130.6" cy="223.4" r="4.2" fill="#c0392b" fill-opacity="0.85"/>
<circle cx="155.4" cy="184.5" r="4.2" fill="#c0392b" fill-opacity="0.85"/>
<circle cx="126.4" cy="203.7" r="4.2" fill="#c0392b" fill-opacity="0.85"/>
<circle cx="154.4" cy="203.4" r="4.2" fill="#c0392b" fill-opacity="0.85"/>
<circle cx="156.6" cy="224.1" r="4.2" fill="#c0392b" fill-opacity="0.85"/>
<circle cx="150.3" cy="178.9" r="4.2" fill="#c0392b" fill-opacity="0.85"/>
<circle cx="151.6" cy="228.4" r="4.2" fill="#c0392b" fill-opacity="0.85"/>
<circle cx="147.5" cy="193.2" r="4.2" fill="#c0392b" fill-opacity="0.85"/>
<circle cx="142.6" cy="227.3" r="4.2" fill="#c0392b" fill-opacity="0.85"/>
<circle cx="166.8" cy="240.2" r="4.2" fill="#c0392b" fill-opacity="0.85"/>
<circle cx="145.4" cy="217.1" r="4.2" fill="#c0392b" fill-opacity="0.85"/>
<circle cx="110.4" cy="194.0" r="4.2" fill="#c0392b" fill-opacity="0.85"/>
<circle cx="142.2" cy="238.6" r="4.2" fill="#c0392b" fill-opacity="0.85"/>
<circle cx="297.4" cy="162.5" r="4.2" fill="#2e9e6b" fill-opacity="0.85"/>
<circle cx="245.8" cy="167.3" r="4.2" fill="#2e9e6b" fill-opacity="0.85"/>
<circle cx="290.4" cy="142.5" r="4.2" fill="#2e9e6b" fill-opacity="0.85"/>
<circle cx="288.4" cy="153.6" r="4.2" fill="#2e9e6b" fill-opacity="0.85"/>
<circle cx="294.7" cy="158.3" r="4.2" fill="#2e9e6b" fill-opacity="0.85"/>
<circle cx="309.3" cy="151.6" r="4.2" fill="#2e9e6b" fill-opacity="0.85"/>
<circle cx="291.1" cy="144.3" r="4.2" fill="#2e9e6b" fill-opacity="0.85"/>
<circle cx="263.2" cy="167.7" r="4.2" fill="#2e9e6b" fill-opacity="0.85"/>
<circle cx="316.5" cy="148.1" r="4.2" fill="#2e9e6b" fill-opacity="0.85"/>
<circle cx="279.2" cy="148.0" r="4.2" fill="#2e9e6b" fill-opacity="0.85"/>
<circle cx="275.1" cy="149.2" r="4.2" fill="#2e9e6b" fill-opacity="0.85"/>
<circle cx="271.3" cy="149.2" r="4.2" fill="#2e9e6b" fill-opacity="0.85"/>
<circle cx="252.5" cy="129.5" r="4.2" fill="#2e9e6b" fill-opacity="0.85"/>
<circle cx="274.4" cy="184.0" r="4.2" fill="#2e9e6b" fill-opacity="0.85"/>
<circle cx="280.4" cy="161.3" r="4.2" fill="#2e9e6b" fill-opacity="0.85"/>
<circle cx="288.1" cy="175.8" r="4.2" fill="#2e9e6b" fill-opacity="0.85"/>
<circle cx="293.2" cy="86.6" r="4.2" fill="#2e9e6b" fill-opacity="0.85"/>
<circle cx="258.6" cy="148.1" r="4.2" fill="#2e9e6b" fill-opacity="0.85"/>
<circle cx="278.6" cy="150.8" r="4.2" fill="#2e9e6b" fill-opacity="0.85"/>
<circle cx="247.6" cy="175.9" r="4.2" fill="#2e9e6b" fill-opacity="0.85"/>
<circle cx="294.5" cy="155.1" r="4.2" fill="#2e9e6b" fill-opacity="0.85"/>
<circle cx="318.7" cy="167.6" r="4.2" fill="#2e9e6b" fill-opacity="0.85"/>
<circle cx="288.6" cy="99.9" r="4.2" fill="#2e9e6b" fill-opacity="0.85"/>
<circle cx="269.2" cy="171.3" r="4.2" fill="#2e9e6b" fill-opacity="0.85"/>
<circle cx="284.3" cy="155.2" r="4.2" fill="#2e9e6b" fill-opacity="0.85"/>
<circle cx="302.4" cy="152.0" r="4.2" fill="#2e9e6b" fill-opacity="0.85"/>
<circle cx="269.4" cy="150.4" r="4.2" fill="#2e9e6b" fill-opacity="0.85"/>
<circle cx="339.4" cy="130.6" r="4.2" fill="#2e9e6b" fill-opacity="0.85"/>
<circle cx="227.6" cy="157.1" r="4.2" fill="#2e9e6b" fill-opacity="0.85"/>
<circle cx="267.0" cy="142.8" r="4.2" fill="#2e9e6b" fill-opacity="0.85"/>
<circle cx="281.4" cy="118.2" r="4.2" fill="#2e9e6b" fill-opacity="0.85"/>
<circle cx="304.2" cy="137.7" r="4.2" fill="#2e9e6b" fill-opacity="0.85"/>
<circle cx="288.8" cy="155.2" r="4.2" fill="#2e9e6b" fill-opacity="0.85"/>
<circle cx="292.0" cy="130.2" r="4.2" fill="#2e9e6b" fill-opacity="0.85"/>
<circle cx="296.0" cy="161.0" r="4.2" fill="#2e9e6b" fill-opacity="0.85"/>
<circle cx="311.3" cy="150.8" r="4.2" fill="#2e9e6b" fill-opacity="0.85"/>
<circle cx="283.4" cy="169.2" r="4.2" fill="#2e9e6b" fill-opacity="0.85"/>
<circle cx="273.3" cy="166.3" r="4.2" fill="#2e9e6b" fill-opacity="0.85"/>
<circle cx="227.4" cy="135.4" r="4.2" fill="#2e9e6b" fill-opacity="0.85"/>
<circle cx="296.7" cy="158.4" r="4.2" fill="#2e9e6b" fill-opacity="0.85"/>
<circle cx="306.6" cy="146.2" r="4.2" fill="#2e9e6b" fill-opacity="0.85"/>
<circle cx="292.7" cy="200.7" r="4.2" fill="#2e9e6b" fill-opacity="0.85"/>
<circle cx="280.2" cy="144.4" r="4.2" fill="#2e9e6b" fill-opacity="0.85"/>
<circle cx="318.2" cy="119.9" r="4.2" fill="#2e9e6b" fill-opacity="0.85"/>
<circle cx="314.4" cy="176.1" r="4.2" fill="#2e9e6b" fill-opacity="0.85"/>
</g>
<line x1="372" y1="165" x2="440" y2="165" stroke="#395b8c" stroke-width="3" marker-end="url(#ak)"/>
<text x="630.7" y="292.9" font-size="14" fill="#1e2b3e" text-anchor="middle" font-weight="700" stroke="#fdfdfc" stroke-width="5" paint-order="stroke">frequent, small baskets</text>
<text x="499.3" y="69.7" font-size="14" fill="#1e2b3e" text-anchor="middle" font-weight="700" stroke="#fdfdfc" stroke-width="5" paint-order="stroke">rare, big baskets</text>
<text x="535.5" y="257.0" font-size="14" fill="#1e2b3e" text-anchor="middle" font-weight="700" stroke="#fdfdfc" stroke-width="5" paint-order="stroke">occasional, modest</text>
<text x="685.0" y="117.2" font-size="14" fill="#1e2b3e" text-anchor="middle" font-weight="700" stroke="#fdfdfc" stroke-width="5" paint-order="stroke">frequent, generous</text>
<text x="400.0" y="352.0" font-size="13" fill="#4b5563" text-anchor="middle" font-weight="400" >fictitious shoppers · groups found by k-means, with no labels given</text>
</svg>
