<svg xmlns="http://www.w3.org/2000/svg" viewBox="0 0 680 305" width="680" height="305" font-family="'Unil Sans', Arial, sans-serif">
<rect width="680" height="305" fill="#fdfdfc"/>
<defs><marker id="ad" viewBox="0 0 10 10" refX="9" refY="5" markerWidth="8" markerHeight="8" orient="auto"><path d="M0,0 L10,5 L0,10 z" fill="#395b8c"/></marker></defs>
<rect x="30" y="30" width="23" height="23" fill="rgb(248,248,248)"/>
<rect x="54" y="30" width="23" height="23" fill="rgb(243,243,243)"/>
<rect x="78" y="30" width="23" height="23" fill="rgb(60,60,60)"/>
<rect x="102" y="30" width="23" height="23" fill="rgb(38,38,38)"/>
<rect x="126" y="30" width="23" height="23" fill="rgb(3,3,3)"/>
<rect x="150" y="30" width="23" height="23" fill="rgb(4,4,4)"/>
<rect x="174" y="30" width="23" height="23" fill="rgb(52,52,52)"/>
<rect x="198" y="30" width="23" height="23" fill="rgb(22,22,22)"/>
<rect x="222" y="30" width="23" height="23" fill="rgb(47,47,47)"/>
<rect x="246" y="30" width="23" height="23" fill="rgb(251,251,251)"/>
<rect x="30" y="54" width="23" height="23" fill="rgb(254,254,254)"/>
<rect x="54" y="54" width="23" height="23" fill="rgb(17,17,17)"/>
<rect x="78" y="54" width="23" height="23" fill="rgb(20,20,20)"/>
<rect x="102" y="54" width="23" height="23" fill="rgb(16,16,16)"/>
<rect x="126" y="54" width="23" height="23" fill="rgb(48,48,48)"/>
<rect x="150" y="54" width="23" height="23" fill="rgb(12,12,12)"/>
<rect x="174" y="54" width="23" height="23" fill="rgb(47,47,47)"/>
<rect x="198" y="54" width="23" height="23" fill="rgb(40,40,40)"/>
<rect x="222" y="54" width="23" height="23" fill="rgb(8,8,8)"/>
<rect x="246" y="54" width="23" height="23" fill="rgb(242,242,242)"/>
<rect x="30" y="78" width="23" height="23" fill="rgb(254,254,254)"/>
<rect x="54" y="78" width="23" height="23" fill="rgb(244,244,244)"/>
<rect x="78" y="78" width="23" height="23" fill="rgb(243,243,243)"/>
<rect x="102" y="78" width="23" height="23" fill="rgb(236,236,236)"/>
<rect x="126" y="78" width="23" height="23" fill="rgb(248,248,248)"/>
<rect x="150" y="78" width="23" height="23" fill="rgb(245,245,245)"/>
<rect x="174" y="78" width="23" height="23" fill="rgb(26,26,26)"/>
<rect x="198" y="78" width="23" height="23" fill="rgb(41,41,41)"/>
<rect x="222" y="78" width="23" height="23" fill="rgb(246,246,246)"/>
<rect x="246" y="78" width="23" height="23" fill="rgb(241,241,241)"/>
<rect x="30" y="102" width="23" height="23" fill="rgb(237,237,237)"/>
<rect x="54" y="102" width="23" height="23" fill="rgb(241,241,241)"/>
<rect x="78" y="102" width="23" height="23" fill="rgb(251,251,251)"/>
<rect x="102" y="102" width="23" height="23" fill="rgb(245,245,245)"/>
<rect x="126" y="102" width="23" height="23" fill="rgb(245,245,245)"/>
<rect x="150" y="102" width="23" height="23" fill="rgb(54,54,54)"/>
<rect x="174" y="102" width="23" height="23" fill="rgb(6,6,6)"/>
<rect x="198" y="102" width="23" height="23" fill="rgb(235,235,235)"/>
<rect x="222" y="102" width="23" height="23" fill="rgb(243,243,243)"/>
<rect x="246" y="102" width="23" height="23" fill="rgb(242,242,242)"/>
<rect x="30" y="126" width="23" height="23" fill="rgb(249,249,249)"/>
<rect x="54" y="126" width="23" height="23" fill="rgb(246,246,246)"/>
<rect x="78" y="126" width="23" height="23" fill="rgb(238,238,238)"/>
<rect x="102" y="126" width="23" height="23" fill="rgb(236,236,236)"/>
<rect x="126" y="126" width="23" height="23" fill="rgb(52,52,52)"/>
<rect x="150" y="126" width="23" height="23" fill="rgb(12,12,12)"/>
<rect x="174" y="126" width="23" height="23" fill="rgb(246,246,246)"/>
<rect x="198" y="126" width="23" height="23" fill="rgb(246,246,246)"/>
<rect x="222" y="126" width="23" height="23" fill="rgb(246,246,246)"/>
<rect x="246" y="126" width="23" height="23" fill="rgb(254,254,254)"/>
<rect x="30" y="150" width="23" height="23" fill="rgb(251,251,251)"/>
<rect x="54" y="150" width="23" height="23" fill="rgb(246,246,246)"/>
<rect x="78" y="150" width="23" height="23" fill="rgb(253,253,253)"/>
<rect x="102" y="150" width="23" height="23" fill="rgb(63,63,63)"/>
<rect x="126" y="150" width="23" height="23" fill="rgb(41,41,41)"/>
<rect x="150" y="150" width="23" height="23" fill="rgb(243,243,243)"/>
<rect x="174" y="150" width="23" height="23" fill="rgb(242,242,242)"/>
<rect x="198" y="150" width="23" height="23" fill="rgb(246,246,246)"/>
<rect x="222" y="150" width="23" height="23" fill="rgb(244,244,244)"/>
<rect x="246" y="150" width="23" height="23" fill="rgb(243,243,243)"/>
<rect x="30" y="174" width="23" height="23" fill="rgb(254,254,254)"/>
<rect x="54" y="174" width="23" height="23" fill="rgb(241,241,241)"/>
<rect x="78" y="174" width="23" height="23" fill="rgb(3,3,3)"/>
<rect x="102" y="174" width="23" height="23" fill="rgb(3,3,3)"/>
<rect x="126" y="174" width="23" height="23" fill="rgb(251,251,251)"/>
<rect x="150" y="174" width="23" height="23" fill="rgb(238,238,238)"/>
<rect x="174" y="174" width="23" height="23" fill="rgb(246,246,246)"/>
<rect x="198" y="174" width="23" height="23" fill="rgb(241,241,241)"/>
<rect x="222" y="174" width="23" height="23" fill="rgb(243,243,243)"/>
<rect x="246" y="174" width="23" height="23" fill="rgb(240,240,240)"/>
<rect x="30" y="198" width="23" height="23" fill="rgb(244,244,244)"/>
<rect x="54" y="198" width="23" height="23" fill="rgb(250,250,250)"/>
<rect x="78" y="198" width="23" height="23" fill="rgb(10,10,10)"/>
<rect x="102" y="198" width="23" height="23" fill="rgb(19,19,19)"/>
<rect x="126" y="198" width="23" height="23" fill="rgb(251,251,251)"/>
<rect x="150" y="198" width="23" height="23" fill="rgb(249,249,249)"/>
<rect x="174" y="198" width="23" height="23" fill="rgb(239,239,239)"/>
<rect x="198" y="198" width="23" height="23" fill="rgb(237,237,237)"/>
<rect x="222" y="198" width="23" height="23" fill="rgb(254,254,254)"/>
<rect x="246" y="198" width="23" height="23" fill="rgb(242,242,242)"/>
<rect x="30" y="222" width="23" height="23" fill="rgb(238,238,238)"/>
<rect x="54" y="222" width="23" height="23" fill="rgb(53,53,53)"/>
<rect x="78" y="222" width="23" height="23" fill="rgb(44,44,44)"/>
<rect x="102" y="222" width="23" height="23" fill="rgb(247,247,247)"/>
<rect x="126" y="222" width="23" height="23" fill="rgb(235,235,235)"/>
<rect x="150" y="222" width="23" height="23" fill="rgb(243,243,243)"/>
<rect x="174" y="222" width="23" height="23" fill="rgb(248,248,248)"/>
<rect x="198" y="222" width="23" height="23" fill="rgb(249,249,249)"/>
<rect x="222" y="222" width="23" height="23" fill="rgb(237,237,237)"/>
<rect x="246" y="222" width="23" height="23" fill="rgb(252,252,252)"/>
<rect x="30" y="246" width="23" height="23" fill="rgb(240,240,240)"/>
<rect x="54" y="246" width="23" height="23" fill="rgb(40,40,40)"/>
<rect x="78" y="246" width="23" height="23" fill="rgb(31,31,31)"/>
<rect x="102" y="246" width="23" height="23" fill="rgb(253,253,253)"/>
<rect x="126" y="246" width="23" height="23" fill="rgb(245,245,245)"/>
<rect x="150" y="246" width="23" height="23" fill="rgb(240,240,240)"/>
<rect x="174" y="246" width="23" height="23" fill="rgb(237,237,237)"/>
<rect x="198" y="246" width="23" height="23" fill="rgb(250,250,250)"/>
<rect x="222" y="246" width="23" height="23" fill="rgb(251,251,251)"/>
<rect x="246" y="246" width="23" height="23" fill="rgb(247,247,247)"/>
<text x="150.0" y="290.0" font-size="15" fill="#4b5563" text-anchor="middle" font-weight="400" >100 pixels = 100 numbers</text>
<line x1="290" y1="150" x2="350" y2="150" stroke="#395b8c" stroke-width="3" marker-end="url(#ad)"/>
<text x="380.0" y="47.0" font-size="15" fill="#1e2b3e" text-anchor="middle" font-weight="700" >0</text>
<rect x="396" y="32" width="0.2" height="17" fill="#3578b4"/>
<text x="406.2" y="46.0" font-size="13" fill="#4b5563" text-anchor="start" font-weight="400" ></text>
<text x="380.0" y="71.0" font-size="15" fill="#1e2b3e" text-anchor="middle" font-weight="700" >1</text>
<rect x="396" y="56" width="4.6" height="17" fill="#3578b4"/>
<text x="410.6" y="70.0" font-size="13" fill="#4b5563" text-anchor="start" font-weight="400" >2%</text>
<text x="380.0" y="95.0" font-size="15" fill="#1e2b3e" text-anchor="middle" font-weight="700" >2</text>
<rect x="396" y="80" width="6.9" height="17" fill="#3578b4"/>
<text x="412.9" y="94.0" font-size="13" fill="#4b5563" text-anchor="start" font-weight="400" >3%</text>
<text x="380.0" y="119.0" font-size="15" fill="#1e2b3e" text-anchor="middle" font-weight="700" >3</text>
<rect x="396" y="104" width="2.3" height="17" fill="#3578b4"/>
<text x="408.3" y="118.0" font-size="13" fill="#4b5563" text-anchor="start" font-weight="400" >1%</text>
<text x="380.0" y="143.0" font-size="15" fill="#1e2b3e" text-anchor="middle" font-weight="700" >4</text>
<rect x="396" y="128" width="1.2" height="17" fill="#3578b4"/>
<text x="407.1" y="142.0" font-size="13" fill="#4b5563" text-anchor="start" font-weight="400" ></text>
<text x="380.0" y="167.0" font-size="15" fill="#1e2b3e" text-anchor="middle" font-weight="700" >5</text>
<rect x="396" y="152" width="0.9" height="17" fill="#3578b4"/>
<text x="406.9" y="166.0" font-size="13" fill="#4b5563" text-anchor="start" font-weight="400" ></text>
<text x="380.0" y="191.0" font-size="15" fill="#1e2b3e" text-anchor="middle" font-weight="700" >6</text>
<rect x="396" y="176" width="0.2" height="17" fill="#3578b4"/>
<text x="406.2" y="190.0" font-size="13" fill="#4b5563" text-anchor="start" font-weight="400" ></text>
<text x="380.0" y="215.0" font-size="15" fill="#1e2b3e" text-anchor="middle" font-weight="700" >7</text>
<rect x="396" y="200" width="207.0" height="17" fill="#fab52a"/>
<text x="613.0" y="214.0" font-size="13" fill="#4b5563" text-anchor="start" font-weight="400" >90%</text>
<text x="380.0" y="239.0" font-size="15" fill="#1e2b3e" text-anchor="middle" font-weight="700" >8</text>
<rect x="396" y="224" width="2.3" height="17" fill="#3578b4"/>
<text x="408.3" y="238.0" font-size="13" fill="#4b5563" text-anchor="start" font-weight="400" >1%</text>
<text x="380.0" y="263.0" font-size="15" fill="#1e2b3e" text-anchor="middle" font-weight="700" >9</text>
<rect x="396" y="248" width="4.4" height="17" fill="#3578b4"/>
<text x="410.4" y="262.0" font-size="13" fill="#4b5563" text-anchor="start" font-weight="400" >2%</text>
<text x="510.0" y="290.0" font-size="15" fill="#4b5563" text-anchor="middle" font-weight="400" >the model's answer (schematic)</text>
</svg>
